<?xml version="1.0" encoding="UTF-8"?>
<svg id="Camada_2" data-name="Camada 2" xmlns="http://www.w3.org/2000/svg" viewBox="0 0 582.5 132.48">
  <defs>
    <style>
      .cls-1 {
        fill: #fff;
      }
    </style>
  </defs>
  <g id="Camada_1-2" data-name="Camada 1">
    <g id="logo">
      <g id="TIT">
        <path class="cls-1" d="M431.1,1.6h28.6v123.4h-28.6V1.6Z"/>
        <path class="cls-1" d="M514.5,24.9h-39.5V1.6h107.5v23.3h-39.5v100.1h-28.6V24.9h.1Z"/>
        <g>
          <path class="cls-1" d="M39.5,23.3H0V0h107.5v23.3H39.4h.1Z"/>
          <path class="cls-1" d="M67,26.5l.8,81.6-15.1,18.5-13.5-18.5-.8-81.6h28.6Z"/>
        </g>
      </g>
      <g id="ask">
        <path class="cls-1" d="M145.9,126.31c-22.97,0-38.4-12.74-38.4-31.7,0-9.49,3.69-17.35,10.68-22.73,7.48-5.75,18.59-8.67,33.02-8.67h18.71c-1.11-8.54-7.27-12.7-18.71-12.7-14.29,0-19.34,3.22-25.41,8.13l-2.86,2.32-12.78-24.79,2.12-1.51c10.61-7.55,26.55-12.06,42.64-12.06,31.86,0,48.7,15.6,48.7,45.1v1.23l-.1.1v55.87h-31.7v-6.62c-6.15,5.27-14.94,8.02-25.9,8.02ZM151.2,69.21c-17.2,0-37.7,4.41-37.7,25.4,0,15.61,12.72,25.7,32.4,25.7,12.67,0,21.77-4.06,26.32-11.73l5.58-9.41v19.74h19.7v-52.33l.09-.09c-.45-25.14-14.8-37.88-42.69-37.88-13.82,0-27.42,3.52-37,9.51l7.02,13.62c6.75-4.89,13.26-7.23,26.28-7.23,16.06,0,24.9,7.71,24.9,21.7v3h-24.9ZM152.7,107.81c-12.15,0-18.5-7.29-18.5-14.5,0-6.43,3.45-14.1,19.9-14.1h21.9v13.23l-.18.5c-3.53,9.58-11.74,14.86-23.12,14.86ZM154.1,85.21c-13.9,0-13.9,5.68-13.9,8.1,0,5,5.14,8.5,12.5,8.5,6.03,0,13.87-1.83,17.3-10.45v-6.15h-15.9Z"/>
        <path class="cls-1" d="M263.34,132.48c-20.91,0-42.21-12.7-47.93-16.37h-3.92l12.65-27.09,2.89,1.87c6.41,4.15,23.43,15.16,34.78,15.16,9.27,0,10.52-4.74,10.52-9.37,0-3.93-8.24-6.87-16.97-9.99-16.56-5.92-39.23-14.03-39.23-39.33,0-20.47,16.1-32.69,43.07-32.69,16.29,0,40.46,16.17,41.48,16.86l2.13,1.44-11.67,24.86-2.82-1.61c-8.95-5.1-21.3-10.55-29.12-10.55-11.3,0-11.3,2.2-11.3,4.74,0,4.07,8.56,6.13,17.62,8.32,16.75,4.04,39.68,9.57,39.68,34.48,0,28.99-22.55,39.27-41.86,39.27ZM220.05,111.94c11.25,6.99,28.52,14.53,43.29,14.53,17.33,0,35.86-8.74,35.86-33.27,0-20.19-18.64-24.69-35.09-28.65-11.92-2.87-22.21-5.36-22.21-14.15s6.92-10.74,17.3-10.74c9.54,0,22.16,5.96,29.25,9.77l6.72-14.32c-6.15-3.86-24.09-14.45-35.97-14.45-11.15,0-37.07,2.6-37.07,26.69,0,21.08,19.55,28.07,35.25,33.68,11.24,4.02,20.95,7.49,20.95,15.64,0,9.91-5.87,15.37-16.52,15.37s-24.05-7.27-35.14-14.27l-6.62,14.17Z"/>
        <path class="cls-1" d="M429.17,124.91h-40.91l-28.82-35.74-9.94,9.79v25.94h-33.5V22.61h33.5v35.52l36-34.12h41.15l-42.66,43.42,45.19,57.48ZM391.13,118.91h25.69l-40.81-51.92,36.34-36.98h-24.45l-44.4,42.08V28.61h-21.5v90.3h21.5v-22.46l16.46-16.21,31.18,38.66Z"/>
      </g>
    </g>
  </g>
</svg>